<svg width="24" height="24" viewBox="0 0 24 24" fill="none" xmlns="http://www.w3.org/2000/svg">
<path d="M1.5 3.50146C1.5 2.39689 2.39543 1.50146 3.5 1.50146H8.42334C9.5279 1.50146 10.4233 2.3969 10.4233 3.50146V8.4248C10.4233 9.52937 9.5279 10.4248 8.42333 10.4248H3.5C2.39543 10.4248 1.5 9.52937 1.5 8.4248V3.50146Z" fill="#9747FF"/>
<circle cx="17.8835" cy="5.96313" r="4.46166" fill="#BE8CFF"/>
<circle cx="5.96166" cy="17.8865" r="4.46166" fill="#BE8CFF"/>
<path d="M13.4219 15.4248C13.4219 14.3202 14.3173 13.4248 15.4219 13.4248H20.3452C21.4498 13.4248 22.3452 14.3202 22.3452 15.4248V20.3481C22.3452 21.4527 21.4498 22.3481 20.3452 22.3481H15.4219C14.3173 22.3481 13.4219 21.4527 13.4219 20.3481V15.4248Z" fill="#9747FF"/>
</svg>
