<svg width="24" height="25" viewBox="0 0 24 25" fill="none" xmlns="http://www.w3.org/2000/svg">
<path d="M16 6.3501L15.9117 6.04104C15.4717 4.50099 15.2517 3.73097 14.7279 3.29053C14.2041 2.8501 13.5084 2.8501 12.117 2.8501H11.883C10.4916 2.8501 9.79587 2.8501 9.2721 3.29053C8.74832 3.73097 8.52832 4.50099 8.0883 6.04104L8 6.3501" fill="#828282"/>
<path d="M3 11.3501L3.15288 14.2134C3.31714 17.8271 3.39927 19.634 4.55885 20.742C5.71843 21.8501 7.52716 21.8501 11.1446 21.8501H12.8554C16.4728 21.8501 18.2816 21.8501 19.4412 20.742C20.6007 19.634 20.6829 17.8271 20.8471 14.2134L21 11.3501" fill="#D9D9D9"/>
<path d="M3 11.3501L3.15288 14.2134C3.31714 17.8271 3.39927 19.634 4.55885 20.742C5.71843 21.8501 7.52716 21.8501 11.1446 21.8501H12.8554C16.4728 21.8501 18.2816 21.8501 19.4412 20.742C20.6007 19.634 20.6829 17.8271 20.8471 14.2134L21 11.3501" stroke="#D9D9D9" stroke-width="1.5" stroke-linecap="round" stroke-linejoin="round"/>
<path d="M2.84718 10.7932C4.54648 14.0245 8.3792 15.3501 12 15.3501C15.6208 15.3501 19.4535 14.0245 21.1528 10.7932C21.964 9.25066 21.3498 6.3501 19.352 6.3501H4.648C2.65023 6.3501 2.03603 9.25066 2.84718 10.7932Z" fill="#D9D9D9" stroke="#D9D9D9" stroke-width="1.5"/>
<path d="M12 15.3501V16.8501" stroke="#828282" stroke-width="1.5" stroke-linecap="round" stroke-linejoin="round"/>
</svg>
