<svg width="24" height="25" viewBox="0 0 24 25" fill="none" xmlns="http://www.w3.org/2000/svg">
<path d="M6.09881 19.3501C4.7987 19.2222 3.82475 18.8317 3.17157 18.1785C2 17.007 2 15.1213 2 11.3501V10.8501C2 7.07886 2 5.19325 3.17157 4.02167C4.34315 2.8501 6.22876 2.8501 10 2.8501H14C17.7712 2.8501 19.6569 2.8501 20.8284 4.02167C22 5.19325 22 7.07886 22 10.8501V11.3501C22 15.1213 22 17.007 20.8284 18.1785C19.6569 19.3501 17.7712 19.3501 14 19.3501C13.4395 19.3626 12.9931 19.4052 12.5546 19.5051C11.3562 19.781 10.2465 20.3942 9.14987 20.929C7.58729 21.6909 6.806 22.0719 6.31569 21.7152C5.37769 21.0166 6.29454 18.852 6.5 17.8501" fill="#D9D9D9"/>
<path d="M6.09881 19.3501C4.7987 19.2222 3.82475 18.8317 3.17157 18.1785C2 17.007 2 15.1213 2 11.3501V10.8501C2 7.07886 2 5.19325 3.17157 4.02167C4.34315 2.8501 6.22876 2.8501 10 2.8501H14C17.7712 2.8501 19.6569 2.8501 20.8284 4.02167C22 5.19325 22 7.07886 22 10.8501V11.3501C22 15.1213 22 17.007 20.8284 18.1785C19.6569 19.3501 17.7712 19.3501 14 19.3501C13.4395 19.3626 12.9931 19.4052 12.5546 19.5051C11.3562 19.781 10.2465 20.3942 9.14987 20.929C7.58729 21.6909 6.806 22.0719 6.31569 21.7152C5.37769 21.0166 6.29454 18.852 6.5 17.8501" stroke="#D9D9D9" stroke-width="1.5" stroke-linecap="round"/>
<path d="M8 13.8501H16M8 8.8501H12" stroke="#828282" stroke-width="1.5" stroke-linecap="round" stroke-linejoin="round"/>
</svg>
