<svg width="20" height="22" viewBox="0 0 20 22" fill="none" xmlns="http://www.w3.org/2000/svg">
<path d="M14 6C16.357 6 17.5355 6 18.2678 6.73223C19 7.46447 19 8.64298 19 11C19 13.357 19 14.5355 18.2678 15.2678C17.5355 16 16.357 16 14 16H6C3.64298 16 2.46447 16 1.73223 15.2678C1 14.5355 1 13.357 1 11C1 8.64298 1 7.46447 1.73223 6.73223C2.46447 6 3.64298 6 6 6L14 6Z" fill="#BE8CFF" stroke="#BE8CFF" stroke-width="1.5" stroke-linecap="round" stroke-linejoin="round"/>
<path d="M15 1C14.8955 1.54697 14.7107 1.94952 14.3838 2.26777C13.6316 3 12.4211 3 10 3C7.5789 3 6.36835 3 5.61621 2.26777C5.28931 1.94952 5.10449 1.54697 5 1" stroke="#9747FF" stroke-width="1.5" stroke-linecap="round" stroke-linejoin="round"/>
<path d="M15 21C14.8955 20.453 14.7107 20.0505 14.3838 19.7322C13.6316 19 12.4211 19 10 19C7.5789 19 6.36835 19 5.61621 19.7322C5.28931 20.0505 5.10449 20.453 5 21" stroke="#9747FF" stroke-width="1.5" stroke-linecap="round" stroke-linejoin="round"/>
</svg>
