<svg width="25" height="25" viewBox="0 0 25 25" fill="none" xmlns="http://www.w3.org/2000/svg">
<path d="M7 7.8501H16.75C18.8567 7.8501 19.91 7.8501 20.6667 8.35569C20.9943 8.57457 21.2755 8.85582 21.4944 9.18339C22 9.94006 22 10.9934 22 13.1001C22 16.6113 22 18.3668 21.1573 19.628C20.7926 20.1739 20.3238 20.6427 19.7779 21.0074C18.5167 21.8501 16.7612 21.8501 13.25 21.8501H12C7.28595 21.8501 4.92893 21.8501 3.46447 20.3856C2 18.9212 2 16.5641 2 11.8501V8.79437C2 6.9779 2 6.06966 2.38032 5.38816C2.65142 4.90237 3.05227 4.50152 3.53806 4.23042C4.21956 3.8501 5.1278 3.8501 6.94427 3.8501C8.10802 3.8501 8.6899 3.8501 9.19926 4.04111C10.3622 4.47722 10.8418 5.53368 11.3666 6.58323L12 7.8501" fill="#828282"/>
<path d="M4.74066 12.6597C5.21119 11.4061 5.44646 10.7793 5.90561 10.3857C6.64676 9.75031 7.71234 9.85681 8.62548 9.85681H18.548C21.25 9.85681 22.601 9.85681 23.2752 10.7262C24.4324 12.2186 23.0672 14.6394 22.5172 16.1045C21.5313 18.7312 21.0384 20.0445 20.0566 20.8455C18.5606 22.066 16.3844 21.8321 14.5788 21.8321H10.5679C6.70277 21.8321 4.7702 21.8321 3.7652 20.6355C1.9099 18.4265 3.90624 14.8828 4.74066 12.6597Z" fill="#D9D9D9" stroke="#D9D9D9" stroke-width="1.5" stroke-linecap="round"/>
</svg>
