<svg width="112" height="40" viewBox="0 0 112 40" fill="none" xmlns="http://www.w3.org/2000/svg">
<rect width="112" height="40" rx="10" fill="white"/>
<rect x="0.5" y="0.5" width="111" height="39" rx="9.5" stroke="#D5D5D5" stroke-opacity="0.5"/>
<path d="M28.3584 21.3567C27.1689 22.546 24.9308 22.4998 21.4992 22.4998C19.2914 22.4998 17.5014 20.7071 17.5002 18.4993C17.5002 15.07 17.454 12.8307 18.6435 11.6414C19.8329 10.4521 20.3583 10.5003 25.6274 10.5003C26.1366 10.4981 26.3929 11.1139 26.0329 11.4739L23.3199 14.1871C22.6313 14.8758 22.6294 15.9923 23.3181 16.6809C24.0068 17.3695 25.1234 17.3696 25.8122 16.6811L28.5259 13.9686C28.886 13.6086 29.5019 13.8648 29.4997 14.374C29.4997 19.6422 29.5479 20.1675 28.3584 21.3567Z" fill="#D9D9D9" stroke="#D9D9D9" stroke-width="1.5"/>
<path d="M21.5 22.5L15.3284 28.6716C14.2239 29.7761 12.433 29.7761 11.3284 28.6716C10.2239 27.567 10.2239 25.7761 11.3284 24.6716L17.5 18.5" fill="#D9D9D9"/>
<path d="M21.5 22.5L15.3284 28.6716C14.2239 29.7761 12.433 29.7761 11.3284 28.6716C10.2239 27.567 10.2239 25.7761 11.3284 24.6716L17.5 18.5" stroke="#D9D9D9" stroke-width="1.5" stroke-linecap="round"/>
<path d="M13.509 26.5H13.5" stroke="#828282" stroke-width="2" stroke-linecap="round" stroke-linejoin="round"/>
<path d="M40.196 16.638V15.378H47.658V16.638H44.62V25.5H43.248V16.638H40.196ZM47.2579 22.07C47.2579 19.956 48.7699 18.472 50.8279 18.472C52.8719 18.472 54.3839 19.956 54.3839 22.07C54.3839 24.184 52.8719 25.668 50.8279 25.668C48.7699 25.668 47.2579 24.184 47.2579 22.07ZM48.5879 22.07C48.5879 23.498 49.4979 24.492 50.8279 24.492C52.1439 24.492 53.0679 23.498 53.0679 22.07C53.0679 20.642 52.1439 19.648 50.8279 19.648C49.4979 19.648 48.5879 20.642 48.5879 22.07ZM55.3927 22.07C55.3927 19.956 56.9047 18.472 58.9627 18.472C61.0067 18.472 62.5187 19.956 62.5187 22.07C62.5187 24.184 61.0067 25.668 58.9627 25.668C56.9047 25.668 55.3927 24.184 55.3927 22.07ZM56.7227 22.07C56.7227 23.498 57.6327 24.492 58.9627 24.492C60.2787 24.492 61.2027 23.498 61.2027 22.07C61.2027 20.642 60.2787 19.648 58.9627 19.648C57.6327 19.648 56.7227 20.642 56.7227 22.07ZM65.3194 25.5H64.0034V15.196H65.3194V25.5ZM66.6967 23.512H67.9567C67.9567 24.212 68.4887 24.632 69.3567 24.632C70.2807 24.632 70.8127 24.254 70.8127 23.624C70.8127 23.162 70.5887 22.882 69.8747 22.7L68.6707 22.42C67.4527 22.126 66.8787 21.524 66.8787 20.516C66.8787 19.256 67.9427 18.458 69.4547 18.458C70.9527 18.458 71.9327 19.298 71.9607 20.6H70.7007C70.6727 19.914 70.2107 19.48 69.4127 19.48C68.5867 19.48 68.1247 19.844 68.1247 20.474C68.1247 20.936 68.4607 21.244 69.1327 21.412L70.3367 21.706C71.4987 21.986 72.0727 22.518 72.0727 23.54C72.0727 24.842 70.9527 25.668 69.3287 25.668C67.7187 25.668 66.6967 24.814 66.6967 23.512Z" fill="#828282"/>
<path opacity="0.01" d="M83.5 20C83.5 15.5217 83.5 13.2825 84.8912 11.8912C86.2825 10.5 88.5217 10.5 93 10.5C97.4783 10.5 99.7175 10.5 101.109 11.8912C102.5 13.2825 102.5 15.5217 102.5 20C102.5 24.4783 102.5 26.7175 101.109 28.1088C99.7175 29.5 97.4783 29.5 93 29.5C88.5217 29.5 86.2825 29.5 84.8912 28.1088C83.5 26.7175 83.5 24.4783 83.5 20Z" fill="#D9D9D9"/>
<path d="M98 18C98 18 94.3176 22 93 22C91.6824 22 88 18 88 18" stroke="#828282" stroke-width="1.5" stroke-linecap="round" stroke-linejoin="round"/>
</svg>
