<svg width="18" height="18" viewBox="0 0 18 18" fill="none" xmlns="http://www.w3.org/2000/svg">
<path d="M9 1.6875C4.9616 1.6875 1.6875 4.9616 1.6875 9C1.6875 13.0321 4.96828 16.3125 9 16.3125C13.038 16.3125 16.3125 13.038 16.3125 9C16.3125 4.96793 13.0321 1.6875 9 1.6875ZM12.7969 10.125H8.57812C8.54083 10.125 8.50506 10.1102 8.47869 10.0838C8.45232 10.0574 8.4375 10.0217 8.4375 9.98438V4.07812C8.4375 4.04083 8.45232 4.00506 8.47869 3.97869C8.50506 3.95232 8.54083 3.9375 8.57812 3.9375H9.42188C9.45917 3.9375 9.49494 3.95232 9.52131 3.97869C9.54768 4.00506 9.5625 4.04083 9.5625 4.07812V9H12.7969C12.8342 9 12.8699 9.01482 12.8963 9.04119C12.9227 9.06756 12.9375 9.10333 12.9375 9.14062V9.98438C12.9375 10.0217 12.9227 10.0574 12.8963 10.0838C12.8699 10.1102 12.8342 10.125 12.7969 10.125Z" fill="#FFBB0C"/>
</svg>
