<svg width="24" height="25" viewBox="0 0 24 25" fill="none" xmlns="http://www.w3.org/2000/svg">
<path d="M2.5 12.5C2.5 8.02166 2.5 5.78249 3.89124 4.39124C5.28249 3 7.52166 3 12 3C16.4783 3 18.7175 3 20.1088 4.39124C21.5 5.78249 21.5 8.02166 21.5 12.5C21.5 16.9783 21.5 19.2175 20.1088 20.6088C18.7175 22 16.4783 22 12 22C7.52166 22 5.28249 22 3.89124 20.6088C2.5 19.2175 2.5 16.9783 2.5 12.5Z" fill="#FA4B4B" fill-opacity="0.2"/>
<path d="M3.36091 3.86091L3.36091 3.86091C2.50271 4.71911 2.11568 5.81137 1.93059 7.18803C1.74998 8.53144 1.74999 10.2521 1.75 12.4428L1.75 12.5L1.75 12.5572C1.74999 14.7479 1.74998 16.4685 1.93059 17.812C2.11568 19.1886 2.50271 20.2809 3.3609 21.1391L3.36092 21.1391C4.21912 21.9973 5.31137 22.3843 6.68803 22.5694C8.03144 22.75 9.75212 22.75 11.9428 22.75H12H12.0572C14.2479 22.75 15.9685 22.75 17.312 22.5694C18.6886 22.3843 19.7809 21.9973 20.6391 21.1392L20.6392 21.1391C21.4973 20.2809 21.8843 19.1886 22.0694 17.812C22.25 16.4685 22.25 14.7479 22.25 12.5572V12.5V12.4428C22.25 10.2521 22.25 8.53144 22.0694 7.18803C21.8843 5.81137 21.4973 4.71912 20.6391 3.86092L20.6391 3.8609C19.7809 3.00271 18.6886 2.61568 17.312 2.43059C15.9685 2.24998 14.2479 2.24999 12.0572 2.25L12 2.25L11.9428 2.25C9.75212 2.24999 8.03144 2.24998 6.68803 2.43059C5.31137 2.61568 4.21911 3.00271 3.36091 3.86091ZM21.5 12.5C21.5 16.9783 21.5 19.2175 20.1088 20.6088L3.89124 4.39124C5.28249 3 7.52166 3 12 3C16.4783 3 18.7175 3 20.1088 4.39124C21.5 5.78249 21.5 8.02166 21.5 12.5Z" stroke="#FA4B4B" stroke-opacity="0.2" stroke-width="1.5"/>
<path d="M16 12.5H8M16 12.5C16 11.7998 14.0057 10.4915 13.5 10M16 12.5C16 13.2002 14.0057 14.5085 13.5 15" stroke="#FA4B4B" stroke-width="1.5" stroke-linecap="round" stroke-linejoin="round"/>
</svg>
