<svg width="24" height="25" viewBox="0 0 24 25" fill="none" xmlns="http://www.w3.org/2000/svg">
<path d="M17 2.3501V4.3501M12 2.3501V4.3501M7 2.3501V4.3501" stroke="#828282" stroke-width="1.5" stroke-linecap="round" stroke-linejoin="round"/>
<path d="M3.5 10.3501C3.5 7.05027 3.5 5.40035 4.52513 4.37523C5.55025 3.3501 7.20017 3.3501 10.5 3.3501H13.5C16.7998 3.3501 18.4497 3.3501 19.4749 4.37523C20.5 5.40035 20.5 7.05027 20.5 10.3501V15.3501C20.5 18.6499 20.5 20.2998 19.4749 21.325C18.4497 22.3501 16.7998 22.3501 13.5 22.3501H10.5C7.20017 22.3501 5.55025 22.3501 4.52513 21.325C3.5 20.2998 3.5 18.6499 3.5 15.3501V10.3501Z" fill="#D9D9D9" stroke="#D9D9D9" stroke-width="1.5" stroke-linecap="round" stroke-linejoin="round"/>
<path d="M8 15.3501H12M8 10.3501H16" stroke="#828282" stroke-width="1.5" stroke-linecap="round"/>
</svg>
