<svg width="24" height="25" viewBox="0 0 24 25" fill="none" xmlns="http://www.w3.org/2000/svg">
<path fill-rule="evenodd" clip-rule="evenodd" d="M8 3.1001C8.41421 3.1001 8.75 3.43588 8.75 3.8501V6.8501C8.75 7.26431 8.41421 7.6001 8 7.6001C7.58579 7.6001 7.25 7.26431 7.25 6.8501V3.8501C7.25 3.43588 7.58579 3.1001 8 3.1001ZM16 3.1001C16.4142 3.1001 16.75 3.43588 16.75 3.8501V6.8501C16.75 7.26431 16.4142 7.6001 16 7.6001C15.5858 7.6001 15.25 7.26431 15.25 6.8501V3.8501C15.25 3.43588 15.5858 3.1001 16 3.1001Z" fill="#828282"/>
<path d="M3 9.8501H21V18.8501C21 21.0592 19.2091 22.8501 17 22.8501H7C4.79086 22.8501 3 21.0592 3 18.8501V9.8501Z" fill="#D9D9D9"/>
<path d="M17 4.3501H7C4.79086 4.3501 3 6.14096 3 8.3501V9.8501H21V8.3501C21 6.14096 19.2091 4.3501 17 4.3501Z" fill="#D9D9D9"/>
<path d="M11.9955 10.8501H12.0045M11.9955 14.8501H12.0045M15.991 10.8501H16M8 10.8501H8.00897M8 14.8501H8.00897" stroke="#828282" stroke-width="2" stroke-linecap="round" stroke-linejoin="round"/>
</svg>
