<svg width="20" height="21" viewBox="0 0 20 21" fill="none" xmlns="http://www.w3.org/2000/svg">
<path d="M9.9987 18.6198C14.601 18.6198 18.332 14.8888 18.332 10.2865C18.332 5.68408 14.601 1.95312 9.9987 1.95312C6.2673 1.95312 3.14391 4.40553 2.08203 7.78646H4.16536" stroke="#315EBE" stroke-width="1.5" stroke-linecap="round" stroke-linejoin="round"/>
<path d="M10 6.95312V10.2865L11.6667 11.9531" stroke="#315EBE" stroke-width="1.5" stroke-linecap="round" stroke-linejoin="round"/>
<path d="M1.66797 10.2861C1.66797 10.5672 1.68064 10.8452 1.70542 11.1195M7.5013 18.6195C7.21664 18.5258 6.93856 18.4165 6.66797 18.2926M2.67579 14.4528C2.51509 14.1431 2.37174 13.8222 2.24711 13.4913M4.02732 16.3749C4.28205 16.6493 4.55385 16.9062 4.84093 17.1438" stroke="#315EBE" stroke-width="1.5" stroke-linecap="round" stroke-linejoin="round"/>
</svg>
