<svg width="24" height="24" viewBox="0 0 24 24" fill="none" xmlns="http://www.w3.org/2000/svg">
<path d="M13.4297 9.86719C12.8883 9.86719 12.4688 10.2867 12.4688 10.8047C12.4688 11.3227 12.8883 11.7422 13.4297 11.7422C13.9242 11.7422 14.3438 11.3227 14.3438 10.8047C14.3438 10.2867 13.9242 9.86719 13.4297 9.86719ZM6.86719 9.86719C6.32578 9.86719 5.90625 10.2867 5.90625 10.8047C5.90625 11.3227 6.32578 11.7422 6.86719 11.7422C7.36172 11.7422 7.78125 11.3227 7.78125 10.8047C7.78125 10.2867 7.36172 9.86719 6.86719 9.86719Z" fill="#D5D5D5" fill-opacity="0.5"/>
<path d="M16.7331 19.8192C14.7821 20.4641 12.6782 20.2523 10.9235 19.3104L11.1776 19.1071L12.3158 19.6763L12.3205 19.6787L12.3845 19.7107L12.4535 19.7301C13.8987 20.1351 15.4604 20.0909 16.9249 19.5469L16.9387 19.5418L16.9522 19.5361L16.973 19.5275L19.0025 20.2109L20.002 20.5474L19.9918 19.4929L19.971 17.3225L19.9896 17.2992C19.9899 17.2988 19.9903 17.2984 19.9906 17.298C21.9941 14.8141 22.1017 11.2637 20.2011 8.6542C19.7328 8.00321 19.1801 7.4636 18.5775 7.03129L18.567 7.02379L18.5563 7.01666L18.5423 7.00728L17.2731 6.1612V6.08843C18.4647 6.59095 19.5335 7.41189 20.3467 8.52774C22.2476 11.1461 22.1981 14.6616 20.3255 17.2037L20.1794 17.4021V17.6485V20.7882C20.1778 20.7878 20.176 20.7873 20.1738 20.7866L17.2007 19.8182L16.9667 19.742L16.7331 19.8192ZM12.431 18.2886L11.0853 18.702L9.68558 18.6246C8.94987 18.584 8.20961 18.4385 7.49292 18.184L7.25611 18.0998L7.01643 18.1754L4.05016 19.1103L4.04966 19.1087L4.03092 16.0034L4.02939 15.7499L3.87443 15.5493C1.77594 12.8333 1.68644 9.00669 3.74694 6.15985C6.30476 2.6573 11.2219 1.88213 14.7228 4.42704L14.7246 4.42839C15.1867 4.76213 15.5996 5.13644 15.9657 5.5432L16.9124 6.5951L17.4284 7.90602C18.3789 10.321 18.1128 13.1502 16.4793 15.4024C15.4455 16.819 14.0125 17.8028 12.431 18.2886ZM7.28154 17.9189L7.28961 17.9223L7.29776 17.9255C10.5302 19.1847 14.2528 18.131 16.3323 15.2778L16.3329 15.2769C18.816 11.8604 18.052 7.0677 14.6204 4.57311L14.6191 4.57221C11.1944 2.09333 6.39582 2.85339 3.89369 6.28474L3.89275 6.28604C1.83381 9.12228 1.98103 12.9837 4.17748 15.6631L4.18699 15.6746L4.19694 15.6858L4.19774 15.6867L4.21847 17.8432L4.22819 18.8537L5.19255 18.5517L7.25232 17.9068L7.28154 17.9189Z" stroke="#D5D5D5" stroke-opacity="0.5" stroke-width="1.5"/>
<path d="M10.1484 9.86719C9.60703 9.86719 9.1875 10.2867 9.1875 10.8047C9.1875 11.3227 9.60703 11.7422 10.1484 11.7422C10.643 11.7422 11.0625 11.3227 11.0625 10.8047C11.0625 10.2867 10.643 9.86719 10.1484 9.86719Z" fill="#D5D5D5" fill-opacity="0.5"/>
<path d="M9.9375 10.8047C9.9375 10.713 10.0091 10.6172 10.1484 10.6172C10.1799 10.6172 10.2197 10.6304 10.256 10.6674C10.2916 10.7037 10.3125 10.7518 10.3125 10.8047C10.3125 10.8575 10.2916 10.9057 10.256 10.942C10.2197 10.9789 10.1799 10.9922 10.1484 10.9922C10.0091 10.9922 9.9375 10.8964 9.9375 10.8047Z" stroke="#D5D5D5" stroke-opacity="0.5" stroke-width="1.5"/>
</svg>
