<svg width="25" height="24" viewBox="0 0 25 24" fill="none" xmlns="http://www.w3.org/2000/svg">
<path d="M6.81523 6.17556C6.56523 5.53756 6.57523 4.80856 6.68623 4.14156C7.45042 4.37054 8.16812 4.73277 8.80623 5.21156C9.08623 5.42556 9.45323 5.49456 9.79523 5.39156C10.6728 5.129 11.5842 4.99692 12.5002 4.99956C13.4612 4.99956 14.3742 5.13956 15.2032 5.39056C15.5452 5.49456 15.9122 5.42456 16.1912 5.21056C16.829 4.73188 17.5464 4.36965 18.3102 4.14056C18.4212 4.80756 18.4302 5.53656 18.1822 6.17356C18.0322 6.55756 18.1072 6.99956 18.3902 7.31356C19.1142 8.11656 19.5002 9.03956 19.5002 9.99956C19.5002 12.1136 17.5302 14.1866 14.3662 14.8176C13.5742 14.9756 13.2652 15.9726 13.8712 16.5436C14.2602 16.9096 14.5002 17.4256 14.5002 17.9996V20.9996C14.5002 21.2648 14.6056 21.5191 14.7931 21.7067C14.9807 21.8942 15.235 21.9996 15.5002 21.9996C15.7654 21.9996 16.0198 21.8942 16.2073 21.7067C16.3949 21.5191 16.5002 21.2648 16.5002 20.9996V17.9996C16.5002 17.4296 16.3802 16.8876 16.1662 16.3966C19.1832 15.3496 21.5002 12.9926 21.5002 9.99956C21.5002 8.65256 21.0162 7.41456 20.2132 6.37756C20.4232 5.55756 20.4042 4.73156 20.3242 4.09756C20.2532 3.52956 20.1542 2.78556 19.7542 2.34156C19.1592 1.68256 18.1742 2.07056 17.4742 2.30956C16.7233 2.56365 16.0089 2.91497 15.3492 3.35456C14.4183 3.11698 13.461 2.9977 12.5002 2.99956C11.5062 2.99956 10.5472 3.12456 9.64923 3.35556C8.98955 2.91596 8.27514 2.56464 7.52423 2.31056C6.82423 2.07056 5.83823 1.68256 5.24323 2.34156C4.83523 2.79356 4.75023 3.47856 4.67723 4.06056L4.67223 4.09856C4.59223 4.73356 4.57423 5.56056 4.78423 6.38156C3.98423 7.41756 3.50023 8.65356 3.50023 9.99956C3.50023 12.9916 5.81723 15.3496 8.83423 16.3966C8.61585 16.8958 8.50218 17.4346 8.50023 17.9796L8.33223 18.0136C7.61523 18.1126 7.15623 18.0236 6.84423 17.8916C6.08423 17.5696 5.69223 16.7586 5.21423 16.1386C4.91623 15.7536 4.48223 15.2726 3.81623 15.0506C3.6916 15.0091 3.56003 14.9925 3.42901 15.0019C3.29799 15.0112 3.1701 15.0463 3.05263 15.1051C2.8154 15.2238 2.63504 15.4319 2.55123 15.6836C2.46742 15.9353 2.48703 16.2099 2.60574 16.4472C2.72445 16.6844 2.93254 16.8648 3.18423 16.9486C3.74223 17.1346 4.12823 18.0906 4.48223 18.5146C4.85523 18.9626 5.35123 19.4306 6.06223 19.7326C6.74423 20.0226 7.54523 20.1256 8.50023 20.0086V20.9996C8.50023 21.2648 8.60559 21.5191 8.79312 21.7067C8.98066 21.8942 9.23501 21.9996 9.50023 21.9996C9.76545 21.9996 10.0198 21.8942 10.2073 21.7067C10.3949 21.5191 10.5002 21.2648 10.5002 20.9996V17.9996C10.5002 17.4256 10.7402 16.9096 11.1292 16.5436C11.7362 15.9716 11.4262 14.9756 10.6342 14.8176C7.46923 14.1866 5.50023 12.1136 5.50023 9.99956C5.50023 9.04156 5.88523 8.11856 6.60823 7.31556C6.89123 7.00156 6.96523 6.55956 6.81523 6.17556Z" fill="black"/>
</svg>
