<svg width="25" height="24" viewBox="0 0 25 24" fill="none" xmlns="http://www.w3.org/2000/svg">
<path d="M24.2666 9.6498H23.3V9.6H12.5V14.4H19.2818C18.2924 17.1942 15.6338 19.2 12.5 19.2C8.5238 19.2 5.3 15.9762 5.3 12C5.3 8.0238 8.5238 4.8 12.5 4.8C14.3354 4.8 16.0052 5.4924 17.2766 6.6234L20.6708 3.2292C18.5276 1.2318 15.6608 0 12.5 0C5.873 0 0.5 5.373 0.5 12C0.5 18.627 5.873 24 12.5 24C19.127 24 24.5 18.627 24.5 12C24.5 11.1954 24.4172 10.41 24.2666 9.6498Z" fill="#FFC107"/>
<path d="M1.88379 6.4146L5.82639 9.306C6.89319 6.6648 9.47679 4.8 12.5002 4.8C14.3356 4.8 16.0054 5.4924 17.2768 6.6234L20.671 3.2292C18.5278 1.2318 15.661 0 12.5002 0C7.89099 0 3.89379 2.6022 1.88379 6.4146Z" fill="#FF3D00"/>
<path d="M12.4994 24.0002C15.599 24.0002 18.4154 22.814 20.5448 20.885L16.8308 17.7422C15.5855 18.6893 14.0639 19.2015 12.4994 19.2002C9.37821 19.2002 6.72801 17.21 5.72961 14.4326L1.81641 17.4476C3.80241 21.3338 7.83561 24.0002 12.4994 24.0002Z" fill="#4CAF50"/>
<path d="M24.2666 9.64941H23.3V9.59961H12.5V14.3996H19.2818C18.8085 15.7295 17.956 16.8915 16.8296 17.7422L16.8314 17.741L20.5454 20.8838C20.2826 21.1226 24.5 17.9996 24.5 11.9996C24.5 11.195 24.4172 10.4096 24.2666 9.64941Z" fill="#1976D2"/>
</svg>
