<svg width="20" height="20" viewBox="0 0 20 20" fill="none" xmlns="http://www.w3.org/2000/svg">
<path d="M12.0833 16.2503H11.25C8.893 16.2503 7.71447 16.2503 6.98223 15.5181C6.25 14.7858 6.25 13.6073 6.25 11.2503V9.58366M6.25 9.58366V6.66699M6.25 9.58366H10" stroke="#828282" stroke-width="1.5" stroke-linecap="round" stroke-linejoin="round"/>
<path d="M12.082 16.2493C12.082 15.2673 12.082 14.7762 12.3749 14.4711C12.6678 14.166 13.1392 14.166 14.082 14.166H15.082C16.0249 14.166 16.4963 14.166 16.7891 14.4711C17.082 14.7762 17.082 15.2673 17.082 16.2493C17.082 17.2314 17.082 17.7225 16.7891 18.0276C16.4963 18.3327 16.0249 18.3327 15.082 18.3327H14.082C13.1392 18.3327 12.6678 18.3327 12.3749 18.0276C12.082 17.7225 12.082 17.2314 12.082 16.2493Z" stroke="#828282" stroke-width="1.5"/>
<path d="M4.82273 1.66602H7.67988C9.40863 1.66602 9.58463 2.59096 9.58463 4.16602C9.58463 5.74107 9.40863 6.66602 7.67988 6.66602H4.82273C3.09397 6.66602 2.91797 5.74107 2.91797 4.16602C2.91797 2.59096 3.09397 1.66602 4.82273 1.66602Z" stroke="#828282" stroke-width="1.5"/>
<path d="M14.5833 7.5V11.6667M16.6667 9.58333H12.5" stroke="#828282" stroke-width="1.5" stroke-linecap="round" stroke-linejoin="round"/>
</svg>
