<svg width="180" height="34" viewBox="0 0 180 34" fill="none" xmlns="http://www.w3.org/2000/svg">
<path d="M172.572 26.0767V15.7009H170.98V11.4508H172.572V11.3205C172.572 7.28012 175.201 5.19476 179.943 5.53476V9.88682C178.407 9.72815 177.784 10.1475 177.705 11.4508H179.999V15.7009H177.705V26.0767H172.572ZM162.188 19.7413L165.162 11.4508H170.765L161.485 33.0354H155.933L159.429 25.4534L153.435 11.4508H159.117L162.188 19.7413ZM142.223 7.69946H147.333V22.1666H153.038V26.0767H142.223V7.69946ZM134.315 26.0767V18.2283C134.315 16.6359 133.357 15.7519 131.896 15.7519C130.411 15.7519 129.471 16.6359 129.471 18.2283V26.0767H124.361V18.2283C124.361 16.6359 123.426 15.7519 121.964 15.7519C120.452 15.7519 119.517 16.6359 119.517 18.2283V26.0767H114.407V11.4508H119.517V13.3832C120.35 12.2102 121.777 11.3205 123.76 11.3205C125.947 11.3205 127.675 12.3122 128.638 14.0065C129.629 12.5219 131.346 11.3205 133.51 11.3205C137.21 11.3205 139.425 13.7232 139.425 17.5539V26.0767H134.315ZM106.39 18.7496C106.39 16.7946 105.161 15.7292 103.728 15.7292C102.266 15.7292 101.071 16.7662 101.071 18.7496C101.071 20.7046 102.266 21.804 103.728 21.804C105.161 21.804 106.39 20.733 106.39 18.7496ZM95.8587 18.7496C95.8587 14.0859 98.6233 11.2695 102.09 11.2695C104.175 11.2695 105.637 12.1818 106.39 13.4852V11.4508H111.495V26.0767H106.39V24.0423C105.637 25.3457 104.147 26.258 102.09 26.258C98.6233 26.258 95.8587 23.4133 95.8587 18.7496ZM94.2894 21.022C93.6096 24.0197 90.8789 26.258 87.2304 26.258C82.9022 26.258 79.8033 23.4133 79.8033 18.7496C79.8033 14.1085 82.8512 11.2695 87.2304 11.2695C91.5587 11.2695 94.601 14.0632 94.601 18.5966C94.601 18.9876 94.5783 19.4013 94.5273 19.7923H84.8567C84.9587 21.4866 85.8764 22.1666 87.0208 22.1666C88.0123 22.1666 88.5561 21.6226 88.845 21.022H94.2894ZM87.2021 15.3099C85.9784 15.3099 85.1173 15.9842 84.885 17.3159H89.3889C89.3889 16.0126 88.3748 15.3099 87.2021 15.3099ZM63.8895 11.7682V7.69946H78.7439V11.7682H73.8434V26.0767H68.739V11.7682H63.8895Z" fill="#5400DB"/>
<path d="M13.6019 4.53339C13.6019 7.03809 11.5737 9.06678 9.06967 9.06678C6.56561 9.06678 4.53745 7.03809 4.53745 4.53339C4.53745 2.02869 6.56561 0 9.06967 0C11.5737 0 13.6019 2.02869 13.6019 4.53339Z" fill="#EDDBFC"/>
<path d="M9.06444 17.0029C9.06444 19.5076 7.03627 21.5363 4.53222 21.5363C2.02817 21.5363 0 19.5076 0 17.0029C0 14.4982 2.02817 12.4695 4.53222 12.4695C7.03627 12.4695 9.06444 14.4982 9.06444 17.0029Z" fill="#EDDBFC"/>
<path d="M15.859 29.4666C15.859 31.9713 13.8309 34 11.3268 34C8.82276 34 6.79459 31.9713 6.79459 29.4666C6.79459 26.9619 8.82276 24.9332 11.3268 24.9332C13.8309 24.9332 15.859 26.9619 15.859 29.4666Z" fill="#EDDBFC"/>
<path d="M18.1334 4.53339C18.1334 2.02869 20.1616 0 22.6656 0H49.859C52.363 0 54.3912 2.02869 54.3912 4.53339C54.3912 7.03809 52.363 9.06678 49.859 9.06678H22.6656C20.1616 9.06678 18.1334 7.03809 18.1334 4.53339Z" fill="#5400DB"/>
<path d="M13.596 17.0011C13.596 14.4964 15.6242 12.4677 18.1282 12.4677H34.5575C37.0616 12.4677 39.0898 14.4964 39.0898 17.0011C39.0898 19.5058 37.0616 21.5345 34.5575 21.5345H18.1282C15.6242 21.5345 13.596 19.5058 13.596 17.0011Z" fill="#5400DB"/>
<path d="M20.3944 29.4666C20.3944 26.9619 22.4226 24.9332 24.9266 24.9332H38.5233C41.0274 24.9332 43.0555 26.9619 43.0555 29.4666C43.0555 31.9713 41.0274 34 38.5233 34H24.9266C22.4226 34 20.3944 31.9713 20.3944 29.4666Z" fill="#5400DB"/>
</svg>
