<svg width="24" height="24" viewBox="0 0 24 24" fill="none" xmlns="http://www.w3.org/2000/svg">
    <path fill-rule="evenodd" clip-rule="evenodd" d="M3.45814 20.535C4.92414 22 7.28014 22 11.9941 22C16.7081 22 19.0651 22 20.5291 20.535C21.9941 19.072 21.9941 16.714 21.9941 12C21.9941 7.286 21.9941 4.929 20.5291 3.464C19.0661 2 16.7081 2 11.9941 2C7.28014 2 4.92314 2 3.45814 3.464C1.99414 4.93 1.99414 7.286 1.99414 12C1.99414 16.714 1.99414 19.071 3.45814 20.535ZM14.7441 16C14.7441 16.1989 14.6651 16.3897 14.5245 16.5303C14.3838 16.671 14.1931 16.75 13.9941 16.75H9.99414C9.79523 16.75 9.60446 16.671 9.46381 16.5303C9.32316 16.3897 9.24414 16.1989 9.24414 16C9.24414 15.8011 9.32316 15.6103 9.46381 15.4697C9.60446 15.329 9.79523 15.25 9.99414 15.25H13.9941C14.1931 15.25 14.3838 15.329 14.5245 15.4697C14.6651 15.6103 14.7441 15.8011 14.7441 16ZM15.9941 12.75C16.1931 12.75 16.3838 12.671 16.5245 12.5303C16.6651 12.3897 16.7441 12.1989 16.7441 12C16.7441 11.8011 16.6651 11.6103 16.5245 11.4697C16.3838 11.329 16.1931 11.25 15.9941 11.25H7.99414C7.79523 11.25 7.60446 11.329 7.46381 11.4697C7.32316 11.6103 7.24414 11.8011 7.24414 12C7.24414 12.1989 7.32316 12.3897 7.46381 12.5303C7.60446 12.671 7.79523 12.75 7.99414 12.75H15.9941ZM18.7441 8C18.7441 8.19891 18.6651 8.38968 18.5245 8.53033C18.3838 8.67098 18.1931 8.75 17.9941 8.75H5.99414C5.79523 8.75 5.60446 8.67098 5.46381 8.53033C5.32316 8.38968 5.24414 8.19891 5.24414 8C5.24414 7.80109 5.32316 7.61032 5.46381 7.46967C5.60446 7.32902 5.79523 7.25 5.99414 7.25H17.9941C18.1931 7.25 18.3838 7.32902 18.5245 7.46967C18.6651 7.61032 18.7441 7.80109 18.7441 8Z" fill="#CA4EB6"/>
</svg>