<svg width="24" height="24" viewBox="0 0 24 24" fill="none" xmlns="http://www.w3.org/2000/svg">
    <path d="M19 8C18.1667 8 17.4583 7.70833 16.875 7.125C16.2917 6.54167 16 5.83333 16 5C16 4.16667 16.2917 3.45833 16.875 2.875C17.4583 2.29167 18.1667 2 19 2C19.8333 2 20.5417 2.29167 21.125 2.875C21.7083 3.45833 22 4.16667 22 5C22 5.83333 21.7083 6.54167 21.125 7.125C20.5417 7.70833 19.8333 8 19 8ZM4 20C3.45 20 2.979 19.804 2.587 19.412C2.195 19.02 1.99934 18.5493 2 18V6C2 5.45 2.196 4.979 2.588 4.587C2.98 4.195 3.45067 3.99933 4 4H14.1C14.0333 4.33333 14 4.66667 14 5C14 5.33333 14.0333 5.66667 14.1 6C14.2167 6.53333 14.4083 7.02933 14.675 7.488C14.9417 7.94667 15.2667 8.35067 15.65 8.7L12 11L5.3 6.8C5.01667 6.61667 4.729 6.60833 4.437 6.775C4.145 6.94167 3.99934 7.19167 4 7.525C4 7.675 4.03333 7.81267 4.1 7.938C4.16667 8.06333 4.26667 8.16733 4.4 8.25L11.475 12.675C11.6417 12.775 11.8167 12.825 12 12.825C12.1833 12.825 12.3583 12.775 12.525 12.675L17.275 9.7C17.5583 9.8 17.8417 9.875 18.125 9.925C18.4083 9.975 18.7 10 19 10C19.5333 10 20.0583 9.91667 20.575 9.75C21.0917 9.58333 21.5667 9.33333 22 9V18C22 18.55 21.804 19.021 21.412 19.413C21.02 19.805 20.5493 20.0007 20 20H4Z" fill="#828282"/>
</svg>