<svg width="18" height="18" viewBox="0 0 18 18" fill="none" xmlns="http://www.w3.org/2000/svg">
<path fill-rule="evenodd" clip-rule="evenodd" d="M1.6875 5.25C1.6875 4.93934 1.93934 4.6875 2.25 4.6875L6 4.6875C6.31066 4.6875 6.5625 4.93934 6.5625 5.25C6.5625 5.56066 6.31066 5.8125 6 5.8125L2.25 5.8125C1.93934 5.8125 1.6875 5.56066 1.6875 5.25Z" fill="#D9D9D9"/>
<path fill-rule="evenodd" clip-rule="evenodd" d="M12.9375 5.25C12.9375 4.93934 13.1893 4.6875 13.5 4.6875L15.75 4.6875C16.0607 4.6875 16.3125 4.93934 16.3125 5.25C16.3125 5.56066 16.0607 5.8125 15.75 5.8125L13.5 5.8125C13.1893 5.8125 12.9375 5.56066 12.9375 5.25Z" fill="#D9D9D9"/>
<path fill-rule="evenodd" clip-rule="evenodd" d="M11.4375 12.75C11.4375 12.4393 11.6893 12.1875 12 12.1875L15.75 12.1875C16.0607 12.1875 16.3125 12.4393 16.3125 12.75C16.3125 13.0607 16.0607 13.3125 15.75 13.3125L12 13.3125C11.6893 13.3125 11.4375 13.0607 11.4375 12.75Z" fill="#D9D9D9"/>
<path fill-rule="evenodd" clip-rule="evenodd" d="M1.6875 12.75C1.6875 12.4393 1.93934 12.1875 2.25 12.1875L4.5 12.1875C4.81066 12.1875 5.0625 12.4393 5.0625 12.75C5.0625 13.0607 4.81066 13.3125 4.5 13.3125L2.25 13.3125C1.93934 13.3125 1.6875 13.0607 1.6875 12.75Z" fill="#D9D9D9"/>
<path d="M12 3L10.5 3C9.25736 3 8.25 4.00736 8.25 5.25C8.25 6.49264 9.25736 7.5 10.5 7.5H12C13.2426 7.5 14.25 6.49264 14.25 5.25C14.25 4.00736 13.2426 3 12 3Z" fill="#828282"/>
<path d="M7.5 10.5L6 10.5C4.75736 10.5 3.75 11.5074 3.75 12.75C3.75 13.9926 4.75736 15 6 15H7.5C8.74264 15 9.75 13.9926 9.75 12.75C9.75 11.5074 8.74264 10.5 7.5 10.5Z" fill="#828282"/>
</svg>
