 <svg width="25" height="24" viewBox="0 0 25 24" fill="none" xmlns="http://www.w3.org/2000/svg">
    <g clip-path="url(#clip0_518_11705)">
    <path d="M20.7346 5.68658C21.1666 4.49158 20.0086 3.33358 18.8136 3.76658L4.20855 9.04858C3.00955 9.48258 2.86455 11.1186 3.96755 11.7576L8.62955 14.4566L12.7926 10.2936C12.9812 10.1114 13.2338 10.0106 13.496 10.0129C13.7582 10.0152 14.009 10.1204 14.1944 10.3058C14.3798 10.4912 14.4849 10.742 14.4872 11.0042C14.4895 11.2664 14.3887 11.519 14.2066 11.7076L10.0436 15.8706L12.7436 20.5326C13.3816 21.6356 15.0176 21.4896 15.4516 20.2916L20.7346 5.68658Z" fill="#4F4F4F"/>
    </g>
    <defs>
    <clipPath id="clip0_518_11705">
    <rect width="24" height="24" fill="white" transform="translate(0.5)"/>
    </clipPath>
    </defs>
</svg>