<svg width="24" height="25" viewBox="0 0 24 25" fill="none" xmlns="http://www.w3.org/2000/svg">
<path d="M12 22.2422C17.5228 22.2422 22 17.765 22 12.2422C22 6.71934 17.5228 2.24219 12 2.24219C6.47715 2.24219 2 6.71934 2 12.2422C2 17.765 6.47715 22.2422 12 22.2422Z" fill="#D9D9D9" stroke="#D9D9D9" stroke-width="1.5" stroke-linecap="round" stroke-linejoin="round"/>
<path d="M8 15.2422C8.91212 16.4566 10.3643 17.2422 12 17.2422C13.6357 17.2422 15.0879 16.4566 16 15.2422" stroke="#828282" stroke-width="1.5" stroke-linecap="round" stroke-linejoin="round"/>
<path d="M15 8.24219C15 8.24219 14 9.24219 14 10.2422C14.75 9.24219 16.25 9.24219 17 10.2422" stroke="#828282" stroke-width="1.5" stroke-linecap="round" stroke-linejoin="round"/>
<path d="M9 8.24219C9 8.24219 10 9.24219 10 10.2422C9.25 9.24219 7.75 9.24219 7 10.2422" stroke="#828282" stroke-width="1.5" stroke-linecap="round" stroke-linejoin="round"/>
</svg>
