<svg width="24" height="24" viewBox="0 0 24 24" fill="none" xmlns="http://www.w3.org/2000/svg">
    <path d="M20.8246 3.17728C20.5325 2.88515 20.1858 2.65343 19.8041 2.49533C19.4225 2.33723 19.0135 2.25586 18.6004 2.25586C18.1873 2.25586 17.7783 2.33723 17.3966 2.49533C17.015 2.65343 16.6683 2.88515 16.3762 3.17728L9.7762 9.77728C9.69914 9.85401 9.64439 9.95024 9.61779 10.0557L8.41779 14.8557C8.39278 14.9561 8.39418 15.0613 8.42186 15.1611C8.44954 15.2608 8.50255 15.3517 8.57575 15.4249C8.64895 15.4981 8.73984 15.5511 8.83959 15.5788C8.93933 15.6065 9.04455 15.6079 9.14499 15.5829L13.945 14.3829C14.0507 14.3568 14.1474 14.3025 14.2246 14.2257L20.8246 7.62568C21.1167 7.33361 21.3484 6.98686 21.5065 6.60523C21.6646 6.2236 21.746 5.81456 21.746 5.40148C21.746 4.98839 21.6646 4.57935 21.5065 4.19772C21.3484 3.81609 21.1167 3.46934 20.8246 3.17728ZM19.1326 11.0133C19.3393 12.5075 19.0716 14.0289 18.3671 15.3627C17.6626 16.6966 16.557 17.7754 15.2063 18.4471C13.8556 19.1187 12.3281 19.3491 10.8394 19.1059C9.35071 18.8626 7.97601 18.1579 6.90938 17.0913C5.84274 16.0247 5.13805 14.65 4.89479 13.1613C4.65152 11.6726 4.88197 10.145 5.5536 8.79437C6.22522 7.44369 7.30411 6.33807 8.63794 5.63358C9.97177 4.92909 11.4932 4.66132 12.9874 4.86808L14.0122 3.84327C12.2308 3.40413 10.3547 3.56026 8.67045 4.28783C6.9862 5.01539 5.58646 6.27437 4.68513 7.87239C3.7838 9.47041 3.43044 11.3196 3.67905 13.1373C3.92766 14.9551 4.76456 16.6415 6.06188 17.9388C7.35919 19.2361 9.04557 20.073 10.8633 20.3216C12.6811 20.5702 14.5303 20.2169 16.1283 19.3155C17.7263 18.4142 18.9853 17.0145 19.7128 15.3302C20.4404 13.646 20.5965 11.7698 20.1574 9.98848L19.1326 11.0133Z" fill="#828282"/>
</svg>