<svg width="16" height="4" viewBox="0 0 16 4" fill="none" xmlns="http://www.w3.org/2000/svg">
    <path d="M14.375 3.5C14.6717 3.5 14.9617 3.41203 15.2084 3.2472C15.455 3.08238 15.6473 2.84811 15.7608 2.57402C15.8744 2.29993 15.9041 1.99834 15.8462 1.70736C15.7883 1.41639 15.6454 1.14912 15.4357 0.939339C15.2259 0.72956 14.9586 0.586699 14.6676 0.528821C14.3767 0.470943 14.0751 0.500648 13.801 0.61418C13.5269 0.727711 13.2926 0.91997 13.1278 1.16664C12.963 1.41332 12.875 1.70333 12.875 2C12.875 2.39782 13.033 2.77935 13.3143 3.06066C13.5956 3.34196 13.9772 3.5 14.375 3.5ZM9.5 2C9.5 2.29667 9.41203 2.58668 9.2472 2.83335C9.08238 3.08003 8.84811 3.27229 8.57402 3.38582C8.29993 3.49935 7.99834 3.52906 7.70736 3.47118C7.41639 3.4133 7.14912 3.27044 6.93934 3.06066C6.72956 2.85088 6.5867 2.58361 6.52882 2.29263C6.47094 2.00166 6.50065 1.70006 6.61418 1.42597C6.72771 1.15188 6.91997 0.917617 7.16664 0.752795C7.41332 0.587973 7.70333 0.499999 8 0.499999C8.39782 0.499999 8.77935 0.658035 9.06066 0.939339C9.34196 1.22064 9.5 1.60217 9.5 2ZM3.125 2C3.125 2.29667 3.03703 2.58668 2.8722 2.83335C2.70738 3.08003 2.47311 3.27229 2.19902 3.38582C1.92494 3.49935 1.62333 3.52906 1.33236 3.47118C1.04139 3.4133 0.774117 3.27044 0.564339 3.06066C0.35456 2.85088 0.211699 2.58361 0.15382 2.29263C0.0959425 2.00166 0.125648 1.70006 0.23918 1.42597C0.352711 1.15188 0.544969 0.917617 0.791643 0.752795C1.03832 0.587973 1.32833 0.499999 1.625 0.499999C2.02282 0.499999 2.40435 0.658035 2.68566 0.939339C2.96696 1.22064 3.125 1.60217 3.125 2Z" fill="#4F4F4F"/>
</svg>