<svg width="24" height="24" viewBox="0 0 24 24" fill="none" xmlns="http://www.w3.org/2000/svg">
    <path fill-rule="evenodd" clip-rule="evenodd" d="M1.40039 11.9954C1.40039 9.18542 2.51665 6.49054 4.50359 4.50359C6.49054 2.51665 9.18542 1.40039 11.9954 1.40039C14.8054 1.40039 17.5002 2.51665 19.4872 4.50359C21.4741 6.49054 22.5904 9.18542 22.5904 11.9954C22.5904 14.8054 21.4741 17.5002 19.4872 19.4872C17.5002 21.4741 14.8054 22.5904 11.9954 22.5904C9.18542 22.5904 6.49054 21.4741 4.50359 19.4872C2.51665 17.5002 1.40039 14.8054 1.40039 11.9954ZM12.9302 5.76304C12.9302 5.5151 12.8317 5.27732 12.6564 5.102C12.4811 4.92668 12.2433 4.82818 11.9954 4.82818C11.7475 4.82818 11.5097 4.92668 11.3343 5.102C11.159 5.27732 11.0605 5.5151 11.0605 5.76304V11.9954C11.0605 12.1539 11.1007 12.3098 11.1775 12.4485C11.2542 12.5872 11.365 12.704 11.4993 12.7881L15.2387 15.1253C15.449 15.2569 15.7029 15.2995 15.9446 15.2439C16.0643 15.2163 16.1773 15.1655 16.2774 15.0942C16.3774 15.023 16.4624 14.9327 16.5276 14.8286C16.5927 14.7245 16.6367 14.6086 16.6571 14.4875C16.6774 14.3664 16.6737 14.2424 16.6462 14.1228C16.6186 14.0031 16.5678 13.89 16.4965 13.79C16.4253 13.6899 16.335 13.6049 16.2309 13.5398L12.9302 11.4769V5.76304Z" fill="#F2C94C"/>
</svg>