<svg width="24" height="24" viewBox="0 0 24 24" fill="none" xmlns="http://www.w3.org/2000/svg">
    <path d="M17.9637 19.4143L17.9635 19.4156C16.1491 20.4567 14.093 21.003 12.0011 21L11.9988 21C9.90688 21.0033 7.8508 20.4569 6.03646 19.4156C5.88727 18.0519 6.20698 16.6781 6.94294 15.5204L6.98078 15.4608C7.51956 14.638 8.25274 13.9601 9.11595 13.4872C9.9999 13.003 10.9917 12.7494 11.9996 12.75L12.0007 12.75C12.8449 12.7492 13.6797 12.9268 14.4506 13.271C15.2214 13.6152 15.9109 14.1183 16.4738 14.7475C17.0367 15.3766 17.4604 16.1175 17.7172 16.9217C17.9739 17.726 18.0579 18.5753 17.9637 19.4143ZM9 6.75C9 5.95435 9.31607 5.19129 9.87868 4.62868C10.4413 4.06607 11.2044 3.75 12 3.75C12.7956 3.75 13.5587 4.06607 14.1213 4.62868C14.6839 5.19129 15 5.95435 15 6.75C15 7.54565 14.6839 8.30871 14.1213 8.87132C13.5587 9.43393 12.7956 9.75 12 9.75C11.2044 9.75 10.4413 9.43393 9.87868 8.87132C9.31607 8.30871 9 7.54565 9 6.75ZM16.5 9.75C16.5 9.15326 16.7371 8.58097 17.159 8.15901C17.581 7.73705 18.1533 7.5 18.75 7.5C19.3467 7.5 19.919 7.73705 20.341 8.15901C20.7629 8.58097 21 9.15326 21 9.75C21 10.3467 20.7629 10.919 20.341 11.341C19.919 11.7629 19.3467 12 18.75 12C18.1533 12 17.581 11.7629 17.159 11.341C16.7371 10.919 16.5 10.3467 16.5 9.75ZM3 9.75C3 9.15326 3.23705 8.58097 3.65901 8.15901C4.08097 7.73705 4.65326 7.5 5.25 7.5C5.84674 7.5 6.41903 7.73705 6.84099 8.15901C7.26295 8.58097 7.5 9.15326 7.5 9.75C7.5 10.3467 7.26295 10.919 6.84099 11.341C6.41903 11.7629 5.84674 12 5.25 12C4.65326 12 4.08097 11.7629 3.65901 11.341C3.23705 10.919 3 10.3467 3 9.75Z" stroke="#828282" stroke-width="1.5"/>
    <path d="M3.61415 15.4854C3.24463 16.436 3.0379 17.4445 3.00485 18.4679C2.75345 18.4034 2.50484 18.3279 2.25974 18.2417L2.25966 18.2408C2.25964 18.2405 2.25962 18.2402 2.2596 18.24C2.22741 17.8386 2.27635 17.4349 2.40351 17.0528C2.53075 16.6705 2.7337 16.3177 3.00024 16.0156C3.18033 15.8114 3.38696 15.6332 3.61415 15.4854ZM21.5967 17.0528C21.7238 17.4348 21.7727 17.8385 21.7406 18.2398C21.7406 18.2401 21.7405 18.2404 21.7405 18.2406C21.4963 18.3268 21.2478 18.4026 20.9953 18.4676C20.9622 17.4443 20.7555 16.4359 20.386 15.4854C20.6132 15.6332 20.8198 15.8114 20.9999 16.0156C21.2665 16.3177 21.4694 16.6705 21.5967 17.0528Z" stroke="#828282" stroke-width="1.5"/>
</svg>