<svg width="33" height="32" viewBox="0 0 33 32" fill="none" xmlns="http://www.w3.org/2000/svg">
    <path fill-rule="evenodd" clip-rule="evenodd" d="M9.5 9C8.70435 9 7.94129 9.31607 7.37868 9.87868C6.81607 10.4413 6.5 11.2044 6.5 12V20C6.5 20.7956 6.81607 21.5587 7.37868 22.1213C7.94129 22.6839 8.70435 23 9.5 23H19.5C20.2956 23 21.0587 22.6839 21.6213 22.1213C22.1839 21.5587 22.5 20.7956 22.5 20V18.414L24.793 20.707C24.9329 20.8468 25.111 20.942 25.305 20.9806C25.4989 21.0192 25.7 20.9993 25.8827 20.9237C26.0654 20.848 26.2215 20.7199 26.3314 20.5555C26.4413 20.391 26.5 20.1978 26.5 20V12C26.5 11.8022 26.4413 11.609 26.3314 11.4445C26.2215 11.2801 26.0654 11.152 25.8827 11.0763C25.7 11.0007 25.4989 10.9808 25.305 11.0194C25.111 11.058 24.9329 11.1532 24.793 11.293L22.5 13.586V12C22.5 11.2044 22.1839 10.4413 21.6213 9.87868C21.0587 9.31607 20.2956 9 19.5 9H9.5Z" fill="#828282"/>
</svg>