<svg width="6" height="10" viewBox="0 0 6 10" fill="none" xmlns="http://www.w3.org/2000/svg">
  <path d="M0.889328 0.84313C0.844246 0.795422 0.809002 0.739302 0.785608 0.677974C0.762214 0.616645 0.751128 0.55131 0.752984 0.485697C0.75484 0.420085 0.769601 0.35548 0.796425 0.295573C0.823249 0.235665 0.861609 0.181627 0.909317 0.136544C0.957024 0.0914618 1.01314 0.0562174 1.07447 0.0328233C1.1358 0.00942931 1.20114 -0.0016562 1.26675 0.000199884C1.33236 0.00205597 1.39697 0.0168172 1.45687 0.0436408C1.51678 0.0704645 1.57082 0.108825 1.6159 0.156533L5.86341 4.65389C5.95113 4.74667 6 4.86951 6 4.99719C6 5.12487 5.95113 5.24771 5.86341 5.34049L1.6159 9.83835C1.57112 9.8871 1.51709 9.92647 1.45696 9.95417C1.39684 9.98186 1.3318 9.99733 1.26565 9.99969C1.19949 10.002 1.13352 9.99122 1.07158 9.96786C1.00964 9.9445 0.952953 9.90907 0.904821 9.86362C0.856689 9.81816 0.818068 9.7636 0.7912 9.7031C0.764333 9.6426 0.749755 9.57736 0.748314 9.51117C0.746872 9.44499 0.758596 9.37918 0.782804 9.31756C0.807012 9.25595 0.843221 9.19976 0.889328 9.15225L4.81303 4.99719L0.889328 0.84313Z" fill="#828282"/>
</svg>