<svg width="24" height="25" viewBox="0 0 24 25" fill="none" xmlns="http://www.w3.org/2000/svg">
<path d="M2 16.2501C2 16.2501 3.79534 15.5 7 15.5C12 15.5 16 18.5 22 18.5" stroke="#828282" stroke-width="1.5" stroke-linecap="round" stroke-linejoin="round"/>
<path d="M2 21.5H22" stroke="#828282" stroke-width="1.5" stroke-linecap="round" stroke-linejoin="round"/>
<path d="M12.594 3.72761C9.74838 4.54368 7.89871 7.35224 8.0043 10.375C8.02623 11.0029 8.03719 11.3168 8.30546 11.4556C8.57373 11.5944 8.85218 11.3977 9.40908 11.0041L10.6506 10.1268C10.8371 9.99503 11.0585 9.93155 11.2815 9.94587L14.1977 10.1332L16.6357 8.41042C16.8222 8.27865 17.0435 8.21517 17.2666 8.2295L18.7879 8.32723C19.4407 8.36916 19.7671 8.39013 19.9291 8.13883C20.0912 7.88753 19.9594 7.61583 19.6959 7.07242C18.3856 4.36989 15.4553 2.90707 12.594 3.72761Z" stroke="#828282" stroke-width="1.5" stroke-linecap="round" stroke-linejoin="round"/>
<path d="M14.5 10L16.5 17.5M12.2857 3.5L12 2.5" stroke="#828282" stroke-width="1.5" stroke-linecap="round" stroke-linejoin="round"/>
</svg>
