<svg width="25" height="24" viewBox="0 0 25 24" fill="none" xmlns="http://www.w3.org/2000/svg">
    <path d="M12.5 16C14.1569 16 15.5 14.6569 15.5 13C15.5 11.3431 14.1569 10 12.5 10C10.8431 10 9.5 11.3431 9.5 13C9.5 14.6569 10.8431 16 12.5 16Z" stroke="#828282" stroke-width="1.5"/>
    <path d="M10.278 21H14.722C17.843 21 19.404 21 20.525 20.265C21.0087 19.948 21.4253 19.5389 21.751 19.061C22.5 17.961 22.5 16.428 22.5 13.364C22.5 10.299 22.5 8.76705 21.751 7.66705C21.4253 7.18916 21.0087 6.78005 20.525 6.46305C19.805 5.99005 18.903 5.82105 17.522 5.76105C16.863 5.76105 16.296 5.27105 16.167 4.63605C16.0684 4.17092 15.8123 3.75408 15.4418 3.456C15.0714 3.15791 14.6095 2.99686 14.134 3.00005H10.866C9.878 3.00005 9.027 3.68505 8.833 4.63605C8.704 5.27105 8.137 5.76105 7.478 5.76105C6.098 5.82105 5.196 5.99105 4.475 6.46305C3.99162 6.78011 3.57537 7.18922 3.25 7.66705C2.5 8.76705 2.5 10.299 2.5 13.364C2.5 16.428 2.5 17.96 3.249 19.061C3.573 19.537 3.989 19.946 4.475 20.265C5.596 21 7.157 21 10.278 21Z" stroke="#828282" stroke-width="1.5"/>
    <path d="M19.5 10H18.5" stroke="#828282" stroke-width="1.5" stroke-linecap="round"/>
</svg>