 <svg width="17" height="18" viewBox="0 0 17 18" fill="none" xmlns="http://www.w3.org/2000/svg">
    <path d="M14.1152 9.60644L7.80311 15.9186C7.11068 16.611 6.17153 17 5.19228 17C4.21302 17 3.27388 16.611 2.58144 15.9186C1.88901 15.2261 1.5 14.287 1.5 13.3077C1.5 12.3285 1.88901 11.3893 2.58144 10.6969L11.5577 1.72061C11.7864 1.49207 12.0578 1.31081 12.3565 1.18716C12.6552 1.06352 12.9753 0.999924 13.2986 1C13.6219 1.00008 13.942 1.06383 14.2406 1.18761C14.5392 1.31139 14.8106 1.49278 15.0391 1.72143C15.2676 1.95007 15.4489 2.22149 15.5726 2.52019C15.6962 2.81889 15.7598 3.13902 15.7597 3.46229C15.7596 3.78557 15.6959 4.10566 15.5721 4.4043C15.4483 4.70294 15.2669 4.97428 15.0383 5.20281L6.05544 14.1857C5.82241 14.4091 5.51093 14.5311 5.18813 14.5271C4.86533 14.523 4.55707 14.3922 4.32977 14.163C4.10247 13.9337 3.97433 13.6244 3.97298 13.3016C3.97163 12.9787 4.09717 12.6683 4.32255 12.4372L10.7307 6.02906M6.06283 14.1775L6.05462 14.1857" stroke="#828282" stroke-width="1.5" stroke-linecap="round" stroke-linejoin="round"/>
</svg>