<svg width="24" height="25" viewBox="0 0 24 25" fill="none" xmlns="http://www.w3.org/2000/svg">
<path fill-rule="evenodd" clip-rule="evenodd" d="M8 2.75C8.41421 2.75 8.75 3.08579 8.75 3.5V6.5C8.75 6.91421 8.41421 7.25 8 7.25C7.58579 7.25 7.25 6.91421 7.25 6.5V3.5C7.25 3.08579 7.58579 2.75 8 2.75ZM16 2.75C16.4142 2.75 16.75 3.08579 16.75 3.5V6.5C16.75 6.91421 16.4142 7.25 16 7.25C15.5858 7.25 15.25 6.91421 15.25 6.5V3.5C15.25 3.08579 15.5858 2.75 16 2.75Z" fill="#828282"/>
<path d="M3 9.5H21V18.5C21 20.7091 19.2091 22.5 17 22.5H7C4.79086 22.5 3 20.7091 3 18.5V9.5Z" fill="#D9D9D9"/>
<path d="M17 4H7C4.79086 4 3 5.79086 3 8V9.5H21V8C21 5.79086 19.2091 4 17 4Z" fill="#D9D9D9"/>
<path d="M11.9955 10.5H12.0045M11.9955 14.5H12.0045M15.991 10.5H16M8 10.5H8.00897M8 14.5H8.00897" stroke="#828282" stroke-width="2" stroke-linecap="round" stroke-linejoin="round"/>
</svg>
