<svg width="24" height="24" viewBox="0 0 24 24" fill="none" xmlns="http://www.w3.org/2000/svg">
<rect width="24" height="24" rx="5" fill="#D9D9D9"/>
<path d="M8.55733 18.9998V14.2931C8.55733 13.8463 8.55733 13.6228 8.37812 13.5672C7.98414 13.445 7.39062 14.3327 7.39062 14.3327M8.55733 18.9998H7.39062M8.55733 18.9998H9.72404" stroke="#828282" stroke-width="1.5" stroke-linecap="round" stroke-linejoin="round"/>
<path d="M10.1112 7.72232V6.36116C10.1112 5.7195 10.1112 5.39867 9.88341 5.19934C9.65559 5 9.28893 5 8.55561 5C7.82229 5 7.45563 5 7.22781 5.19934C7 5.39867 7 5.7195 7 6.36116C7 7.00282 7 7.32364 7.22781 7.52298C7.45563 7.72232 7.82229 7.72232 8.55561 7.72232H10.1112ZM10.1112 7.72232V8.4029C10.1112 9.36538 10.1112 9.84662 9.7695 10.1456C9.42778 10.4446 8.87779 10.4446 7.77781 10.4446H7" stroke="#828282" stroke-width="1.5" stroke-linecap="round" stroke-linejoin="round"/>
<path d="M15.9445 18.2222V5.77734M15.9445 18.2222C15.3999 18.2222 14.3823 16.671 14 16.2777M15.9445 18.2222C16.4892 18.2222 17.5067 16.671 17.889 16.2777" stroke="#828282" stroke-width="1.5" stroke-linecap="round" stroke-linejoin="round"/>
</svg>
