<svg width="24" height="25" viewBox="0 0 24 25" fill="none" xmlns="http://www.w3.org/2000/svg">
<path d="M11 15.5H13" stroke="#9747FF" stroke-width="1.5" stroke-linecap="round" stroke-linejoin="round"/>
<path d="M12 18.5V22.5" stroke="#9747FF" stroke-width="1.5"/>
<path d="M8 22.5H16" stroke="#9747FF" stroke-width="1.5" stroke-linecap="round"/>
<path d="M9 2.50195C6.37454 2.5103 4.9565 2.58823 3.91891 3.31476C3.48891 3.61585 3.1149 3.98985 2.81382 4.41985C2 5.5821 2 7.22171 2 10.5009C2 13.7802 2 15.4198 2.81382 16.5821C3.1149 17.0121 3.48891 17.3861 3.91891 17.6872C5.08116 18.501 6.72077 18.501 10 18.501H14C17.2792 18.501 18.9188 18.501 20.0811 17.6872C20.5111 17.3861 20.8851 17.0121 21.1862 16.5821C21.9127 15.5445 21.9906 14.1264 21.999 11.501" stroke="#9747FF" stroke-width="1.5" stroke-linecap="round"/>
<path d="M19.5 4.64631L19.563 4.60086C20.6208 3.8371 21.1498 3.45522 21.5749 3.63961C22 3.824 22 4.4353 22 5.65791V6.34209C22 7.5647 22 8.176 21.5749 8.36039C21.1498 8.54478 20.6208 8.1629 19.563 7.39914L19.5 7.35369M15.5 9.5H16C17.6499 9.5 18.4749 9.5 18.9874 9.05151C19.5 8.60301 19.5 7.88118 19.5 6.4375V5.5625C19.5 4.11882 19.5 3.39699 18.9874 2.94849C18.4749 2.5 17.6499 2.5 16 2.5H15.5C13.8501 2.5 13.0251 2.5 12.5126 2.94849C12 3.39699 12 4.11882 12 5.5625V6.4375C12 7.88118 12 8.60301 12.5126 9.05151C13.0251 9.5 13.8501 9.5 15.5 9.5Z" stroke="#9747FF" stroke-width="1.5" stroke-linecap="round"/>
</svg>
