<svg width="25" height="25" viewBox="0 0 25 25" fill="none" xmlns="http://www.w3.org/2000/svg">
<path d="M7.96094 22.5126C9.76192 23.6726 12.4158 23.0891 13.2686 21.3457" stroke="#828282" stroke-width="2" stroke-linecap="round" stroke-linejoin="round"/>
<path d="M19.9171 10.7305C19.9171 7.63431 17.7055 5.42278 14.6094 5.42278" stroke="#828282" stroke-width="2" stroke-linecap="round" stroke-linejoin="round"/>
<path d="M23.4555 10.7305C23.4555 5.42278 19.9171 1.88431 14.6094 1.88431" stroke="#828282" stroke-width="2" stroke-linecap="round" stroke-linejoin="round"/>
<path fill-rule="evenodd" clip-rule="evenodd" d="M6.7559 4.687C6.75271 4.67207 6.74911 4.65713 6.74512 4.64221C6.61867 4.1703 6.1336 3.89024 5.66169 4.01669C5.18978 4.14314 4.90972 4.62821 5.03617 5.10012C5.04017 5.11505 5.04453 5.12978 5.04924 5.14432C2.29921 6.32305 0.46958 10.2612 1.85544 13.7368C2.36941 14.7763 1.83367 15.5435 1.27606 16.3421C0.749149 17.0967 0.202701 17.8792 0.503937 18.9459C0.905975 20.4464 1.97811 21.0306 3.34077 21.0976C3.34077 21.0976 5.87391 21.3604 10.0119 20.2516C14.1499 19.1429 16.2123 17.6487 16.2123 17.6487C17.3588 16.9093 17.9843 15.8259 17.5932 14.3669C17.3037 13.2871 16.4396 12.8823 15.6104 12.4939C14.732 12.0824 13.8929 11.6893 13.8182 10.5314C13.2806 6.82849 9.72688 4.33271 6.7559 4.687Z" fill="#D9D9D9"/>
</svg>
