<svg width="24" height="25" viewBox="0 0 24 25" fill="none" xmlns="http://www.w3.org/2000/svg">
<path d="M15.0357 7.94006C15.0357 9.83993 13.4922 11.38 11.5882 11.38C9.68415 11.38 8.14062 9.83993 8.14062 7.94006C8.14062 6.04018 9.68415 4.5 11.5882 4.5C13.4922 4.5 15.0357 6.04018 15.0357 7.94006Z" fill="#828282" stroke="#828282" stroke-width="1.5" stroke-linecap="round" stroke-linejoin="round"/>
<path d="M11.5853 21.5799H7.74745C7.30174 21.5799 6.85413 21.5172 6.44475 21.3412C5.11211 20.7687 4.43599 20.0126 4.1209 19.5397C3.9416 19.2706 3.96715 18.9277 4.16166 18.6694C5.70563 16.6188 9.29195 15.38 11.5918 15.3799C13.8917 15.38 17.4715 16.6188 19.0155 18.6694C19.21 18.9277 19.2355 19.2706 19.0563 19.5397C18.7411 20.0126 18.065 20.7687 16.7324 21.3412C16.3229 21.5172 15.8754 21.5799 15.4297 21.5799H11.5853Z" fill="#D9D9D9" stroke="#D9D9D9" stroke-width="1.5" stroke-linecap="round" stroke-linejoin="round"/>
</svg>
