<svg width="24" height="24" viewBox="0 0 24 24" fill="none" xmlns="http://www.w3.org/2000/svg">
    <path d="M9.25 5.75C9.25 4.95435 9.56607 4.19129 10.1287 3.62868C10.6913 3.06607 11.4544 2.75 12.25 2.75C13.0456 2.75 13.8087 3.06607 14.3713 3.62868C14.9339 4.19129 15.25 4.95435 15.25 5.75V12C15.25 12.7956 14.9339 13.5587 14.3713 14.1213C13.8087 14.6839 13.0457 15 12.25 15C11.4543 15 10.6913 14.6839 10.1287 14.1213C9.56607 13.5587 9.25 12.7956 9.25 12V5.75Z" stroke="#828282" stroke-width="1.5"/>
    <mask id="path-2-inside-1_518_12174" fill="white">
    <path d="M6.625 10.125C6.79076 10.125 6.94973 10.1908 7.06694 10.3081C7.18415 10.4253 7.25 10.5842 7.25 10.75V12C7.25 13.3261 7.77678 14.5979 8.71447 15.5355C9.65215 16.4732 10.9239 17 12.25 17C13.5761 17 14.8479 16.4732 15.7855 15.5355C16.7232 14.5979 17.25 13.3261 17.25 12V10.75C17.25 10.5842 17.3158 10.4253 17.4331 10.3081C17.5503 10.1908 17.7092 10.125 17.875 10.125C18.0408 10.125 18.1997 10.1908 18.3169 10.3081C18.4342 10.4253 18.5 10.5842 18.5 10.75V12C18.5 13.5494 17.9245 15.0436 16.8852 16.1927C15.8458 17.3418 14.4166 18.0638 12.875 18.2188V20.75H16.625C16.7908 20.75 16.9497 20.8158 17.0669 20.9331C17.1842 21.0503 17.25 21.2092 17.25 21.375C17.25 21.5408 17.1842 21.6997 17.0669 21.8169C16.9497 21.9342 16.7908 22 16.625 22H7.875C7.70924 22 7.55027 21.9342 7.43306 21.8169C7.31585 21.6997 7.25 21.5408 7.25 21.375C7.25 21.2092 7.31585 21.0503 7.43306 20.9331C7.55027 20.8158 7.70924 20.75 7.875 20.75H11.625V18.2188C10.0834 18.0638 8.65422 17.3418 7.61485 16.1927C6.57548 15.0436 5.99998 13.5494 6 12V10.75C6 10.5842 6.06585 10.4253 6.18306 10.3081C6.30027 10.1908 6.45924 10.125 6.625 10.125Z"/>
    </mask>
    <path d="M7.25 12H5.75H7.25ZM12.25 17V18.5V17ZM17.25 12H18.75H17.25ZM18.5 12H17V12L18.5 12ZM12.875 18.2188L12.725 16.7263L11.375 16.8619V18.2188H12.875ZM12.875 20.75H11.375V22.25H12.875V20.75ZM7.25 21.375H8.75H7.25ZM11.625 20.75V22.25H13.125V20.75H11.625ZM11.625 18.2188H13.125V16.8619L11.775 16.7263L11.625 18.2188ZM6 12L7.5 12V12H6ZM6.625 11.625C6.39293 11.625 6.17038 11.5328 6.00628 11.3687L8.1276 9.2474C7.72909 8.84888 7.18859 8.625 6.625 8.625V11.625ZM6.00628 11.3687C5.84219 11.2046 5.75 10.9821 5.75 10.75H8.75C8.75 10.1864 8.52612 9.64591 8.1276 9.2474L6.00628 11.3687ZM5.75 10.75V12H8.75V10.75H5.75ZM5.75 12C5.75 13.7239 6.43482 15.3772 7.65381 16.5962L9.77513 14.4749C9.11875 13.8185 8.75 12.9283 8.75 12H5.75ZM7.65381 16.5962C8.87279 17.8152 10.5261 18.5 12.25 18.5V15.5C11.3217 15.5 10.4315 15.1313 9.77513 14.4749L7.65381 16.5962ZM12.25 18.5C13.9739 18.5 15.6272 17.8152 16.8462 16.5962L14.7249 14.4749C14.0685 15.1313 13.1783 15.5 12.25 15.5V18.5ZM16.8462 16.5962C18.0652 15.3772 18.75 13.7239 18.75 12H15.75C15.75 12.9283 15.3813 13.8185 14.7249 14.4749L16.8462 16.5962ZM18.75 12V10.75H15.75V12H18.75ZM18.75 10.75C18.75 10.9821 18.6578 11.2046 18.4937 11.3687L16.3724 9.2474C15.9739 9.64591 15.75 10.1864 15.75 10.75H18.75ZM18.4937 11.3687C18.3296 11.5328 18.1071 11.625 17.875 11.625V8.625C17.3114 8.625 16.7709 8.84888 16.3724 9.2474L18.4937 11.3687ZM17.875 11.625C17.6429 11.625 17.4204 11.5328 17.2563 11.3687L19.3776 9.2474C18.9791 8.84888 18.4386 8.625 17.875 8.625V11.625ZM17.2563 11.3687C17.0922 11.2046 17 10.9821 17 10.75H20C20 10.1864 19.7761 9.64591 19.3776 9.2474L17.2563 11.3687ZM17 10.75V12H20V10.75H17ZM17 12C17 13.1776 16.5626 14.3132 15.7727 15.1865L17.9976 17.1989C19.2864 15.774 20 13.9213 20 12L17 12ZM15.7727 15.1865C14.9828 16.0598 13.8966 16.6085 12.725 16.7263L13.025 19.7112C14.9366 19.5191 16.7088 18.6238 17.9976 17.1989L15.7727 15.1865ZM11.375 18.2188V20.75H14.375V18.2188H11.375ZM12.875 22.25H16.625V19.25H12.875V22.25ZM16.625 22.25C16.3929 22.25 16.1704 22.1578 16.0063 21.9937L18.1276 19.8724C17.7291 19.4739 17.1886 19.25 16.625 19.25V22.25ZM16.0063 21.9937C15.8422 21.8296 15.75 21.6071 15.75 21.375H18.75C18.75 20.8114 18.5261 20.2709 18.1276 19.8724L16.0063 21.9937ZM15.75 21.375C15.75 21.1429 15.8422 20.9204 16.0063 20.7563L18.1276 22.8776C18.5261 22.4791 18.75 21.9386 18.75 21.375H15.75ZM16.0063 20.7563C16.1704 20.5922 16.3929 20.5 16.625 20.5V23.5C17.1886 23.5 17.7291 23.2761 18.1276 22.8776L16.0063 20.7563ZM16.625 20.5H7.875V23.5H16.625V20.5ZM7.875 20.5C8.10706 20.5 8.32962 20.5922 8.49372 20.7563L6.3724 22.8776C6.77091 23.2761 7.31142 23.5 7.875 23.5V20.5ZM8.49372 20.7563C8.65781 20.9204 8.75 21.1429 8.75 21.375H5.75C5.75 21.9386 5.97388 22.4791 6.3724 22.8776L8.49372 20.7563ZM8.75 21.375C8.75 21.6071 8.65781 21.8296 8.49372 21.9937L6.3724 19.8724C5.97388 20.2709 5.75 20.8114 5.75 21.375H8.75ZM8.49372 21.9937C8.32962 22.1578 8.10706 22.25 7.875 22.25V19.25C7.31142 19.25 6.77091 19.4739 6.3724 19.8724L8.49372 21.9937ZM7.875 22.25H11.625V19.25H7.875V22.25ZM13.125 20.75V18.2188H10.125V20.75H13.125ZM11.775 16.7263C10.6034 16.6085 9.51721 16.0598 8.72729 15.1865L6.50241 17.1989C7.79123 18.6238 9.56336 19.5191 11.475 19.7112L11.775 16.7263ZM8.72729 15.1865C7.93736 14.3132 7.49999 13.1776 7.5 12L4.5 12C4.49998 13.9213 5.2136 15.774 6.50241 17.1989L8.72729 15.1865ZM7.5 12V10.75H4.5V12H7.5ZM7.5 10.75C7.5 10.9821 7.40781 11.2046 7.24372 11.3687L5.1224 9.2474C4.72388 9.64591 4.5 10.1864 4.5 10.75H7.5ZM7.24372 11.3687C7.07963 11.5328 6.85707 11.625 6.625 11.625V8.625C6.06141 8.625 5.52091 8.84888 5.1224 9.2474L7.24372 11.3687Z" fill="#828282" mask="url(#path-2-inside-1_518_12174)"/>
</svg>