<svg width="25" height="25" viewBox="0 0 25 25" fill="none" xmlns="http://www.w3.org/2000/svg">
<path d="M2.95001 11.6439C1.94686 12.7643 1.92528 14.4546 2.84594 15.6437C4.67289 18.0033 6.67252 20.0029 9.03211 21.8298C10.2212 22.7505 11.9115 22.7289 13.0319 21.7258C16.0737 19.0022 18.8593 16.1559 21.5477 13.0279C21.8135 12.7187 21.9797 12.3397 22.017 11.9336C22.182 10.138 22.521 4.96467 21.1161 3.55974C19.7111 2.15481 14.5378 2.49377 12.7422 2.65876C12.3361 2.69608 11.9571 2.86233 11.6478 3.12811C8.5199 5.81646 5.67359 8.60211 2.95001 11.6439Z" fill="#D9D9D9" stroke="#D9D9D9" stroke-width="1.5"/>
<path d="M17.6758 4.5C18.5042 4.5 19.1758 5.17157 19.1758 6C19.1758 6.82843 18.5042 7.5 17.6758 7.5C16.8474 7.5 16.1758 6.82843 16.1758 6C16.1758 5.17157 16.8474 4.5 17.6758 4.5Z" fill="#828282"/>
<path d="M7.17578 14.5L10.1758 17.5" stroke="#828282" stroke-width="1.5" stroke-linecap="round" stroke-linejoin="round"/>
</svg>
