<svg width="24" height="24" viewBox="0 0 24 24" fill="none" xmlns="http://www.w3.org/2000/svg">
<path fill-rule="evenodd" clip-rule="evenodd" d="M9.53045 14.4697C9.82333 14.7626 9.82333 15.2375 9.53043 15.5303L3.53032 21.5302C3.23742 21.8231 2.76255 21.8231 2.46966 21.5302C2.17677 21.2373 2.17678 20.7624 2.46968 20.4695L8.46979 14.4697C8.76269 14.1768 9.23756 14.1768 9.53045 14.4697Z" fill="#828282"/>
<path d="M10.9087 5.04196C10.9087 3.22641 13.1038 2.31718 14.3876 3.60096L20.3988 9.61217C21.6826 10.896 20.7733 13.091 18.9578 13.091C18.4173 13.091 17.899 13.3057 17.5168 13.6879L15.8286 15.3761C15.4464 15.7583 15.2317 16.2767 15.2317 16.8171C15.2317 18.6327 13.0366 19.5419 11.7528 18.2581L5.74159 12.2469C4.4578 10.9631 5.36703 8.76806 7.18259 8.76806C7.72306 8.76806 8.24141 8.55335 8.62358 8.17118L10.3118 6.48295C10.694 6.10078 10.9087 5.58243 10.9087 5.04196Z" fill="#D9D9D9"/>
</svg>
