<svg width="16" height="17" viewBox="0 0 16 17" fill="none" xmlns="http://www.w3.org/2000/svg">
<path fill-rule="evenodd" clip-rule="evenodd" d="M1.33203 3.43262C1.33203 2.90218 1.54274 2.39348 1.91782 2.0184C2.29289 1.64333 2.8016 1.43262 3.33203 1.43262H7.4467C7.97686 1.43291 8.48521 1.64368 8.86003 2.01862L14.1934 7.35195C14.5683 7.72701 14.7789 8.23562 14.7789 8.76595C14.7789 9.29628 14.5683 9.8049 14.1934 10.18L10.08 14.2946C9.89431 14.4804 9.67382 14.6277 9.43114 14.7283C9.18847 14.8288 8.92837 14.8805 8.6657 14.8805C8.40303 14.8805 8.14293 14.8288 7.90025 14.7283C7.65758 14.6277 7.43709 14.4804 7.25136 14.2946L1.91803 8.96128C1.54293 8.5863 1.33214 8.07767 1.33203 7.54728V3.43262ZM4.66536 4.09928C4.48855 4.09928 4.31898 4.16952 4.19396 4.29455C4.06894 4.41957 3.9987 4.58914 3.9987 4.76595C3.9987 4.94276 4.06894 5.11233 4.19396 5.23735C4.31898 5.36238 4.48855 5.43262 4.66536 5.43262C4.84218 5.43262 5.01241 5.36238 5.13744 5.23735C5.26246 5.11233 5.3327 4.94276 5.3327 4.76595C5.3327 4.58914 5.26246 4.41957 5.13744 4.29455C5.01241 4.16952 4.84218 4.09928 4.66536 4.09928Z" fill="#EB5757"/>
</svg>
