<svg width="24" height="24" viewBox="0 0 24 24" fill="none" xmlns="http://www.w3.org/2000/svg">
<path d="M2.5 12C2.5 7.52166 2.5 5.28249 3.89124 3.89124C5.28249 2.5 7.52166 2.5 12 2.5C16.4783 2.5 18.7175 2.5 20.1088 3.89124C21.5 5.28249 21.5 7.52166 21.5 12C21.5 16.4783 21.5 18.7175 20.1088 20.1088C18.7175 21.5 16.4783 21.5 12 21.5C7.52166 21.5 5.28249 21.5 3.89124 20.1088C2.5 18.7175 2.5 16.4783 2.5 12Z" fill="#D9D9D9"/>
<path fill-rule="evenodd" clip-rule="evenodd" d="M16.6867 12.9583C16.4372 12.9583 16.2391 12.7495 16.2391 12.5C16.2391 10.8535 15.8438 9.85985 15.2828 9.27448C14.7317 8.69943 13.8104 8.3 12.2682 8.3C10.7261 8.3 9.80478 8.69943 9.25369 9.27448C9.03007 9.50782 8.83277 9.80604 8.67635 10.1846C8.56143 10.4628 8.30392 10.6667 8.00298 10.6667C7.57695 10.6667 7.25617 10.2707 7.40334 9.87087C8.10789 7.95696 9.72952 7 12.2682 7C15.7821 7 17.5391 8.83333 17.5391 12.5C17.5391 12.7563 17.3273 12.9583 17.071 12.9583H16.6867ZM16.1657 13.6369V13.799C16.1657 14.0941 16.4049 14.3333 16.7 14.3333C17.0403 14.3333 17.2959 14.6488 17.1883 14.9717C16.5156 16.9906 14.8756 18 12.2682 18C8.75434 18 6.9974 16.1667 6.9974 12.5C6.9974 12.2437 7.20911 12.0417 7.46542 12.0417H7.84971C8.09925 12.0417 8.2974 12.2505 8.2974 12.5C8.2974 14.1465 8.69271 15.1402 9.25369 15.7255C9.80478 16.3006 10.7261 16.7 12.2682 16.7C13.8104 16.7 14.7317 16.3006 15.2828 15.7255C15.7006 15.2895 16.0265 14.627 16.1657 13.6369Z" fill="#828282"/>
<path d="M7.45703 7.45801V10.208H10.207" stroke="#828282" stroke-width="1.5" stroke-linecap="round" stroke-linejoin="round"/>
<path d="M17.082 17.542L17.082 14.792L14.332 14.792" stroke="#828282" stroke-width="1.5" stroke-linecap="round" stroke-linejoin="round"/>
</svg>
